<?xml version="1.0" encoding="UTF-8"?>
<svg width="640" height="320" viewBox="0 0 640 320" xmlns="http://www.w3.org/2000/svg">
  <rect width="640" height="320" fill="#B22234"/>
  <rect width="640" height="160" y="160" fill="#3C3B6E"/>
  <g fill="#FFFFFF">
    <rect width="640" height="20" y="20"/>
    <rect width="640" height="20" y="60"/>
    <rect width="640" height="20" y="100"/>
    <rect width="640" height="20" y="140"/>
    <rect width="640" height="20" y="180"/>
    <rect width="640" height="20" y="220"/>
    <rect width="640" height="20" y="260"/>
    <rect width="640" height="20" y="300"/>
  </g>
  <rect width="320" height="160" fill="#3C3B6E"/>
  <g fill="#FFFFFF" transform="translate(160,80)">
    <g transform="translate(0,0)">
      <polygon points="0,0 6.5,4 0,8"/>
      <polygon points="0,0 -6.5,4 0,8"/>
    </g>
    <g transform="translate(0,16)">
      <polygon points="0,0 6.5,4 0,8"/>
      <polygon points="0,0 -6.5,4 0,8"/>
    </g>
    <g transform="translate(0,32)">
      <polygon points="0,0 6.5,4 0,8"/>
      <polygon points="0,0 -6.5,4 0,8"/>
    </g>
    <g transform="translate(0,48)">
      <polygon points="0,0 6.5,4 0,8"/>
      <polygon points="0,0 -6.5,4 0,8"/>
    </g>
  </g>
</svg>
